<?xml version="1.0" encoding="UTF-8"?>
<svg version="1.1" xmlns="http://www.w3.org/2000/svg" width="215" height="235">
<path d="M0 0 C0.86799225 0.36834457 1.7359845 0.73668915 2.63027954 1.11619568 C4.4477663 1.88850524 6.26452135 2.66253885 8.08056641 3.43823242 C10.86282317 4.62590062 13.64802111 5.80646117 16.43359375 6.98632812 C18.20590794 7.74046543 19.97804962 8.49500828 21.75 9.25 C22.99685074 9.77818077 22.99685074 9.77818077 24.26889038 10.31703186 C25.04044464 10.64755051 25.8119989 10.97806915 26.60693359 11.31860352 C27.28372162 11.60711685 27.96050964 11.89563019 28.6578064 12.19288635 C30.4765625 13.05859375 30.4765625 13.05859375 33.4765625 15.05859375 C32.27667027 18.65827045 31.49252442 18.9272704 28.29296875 20.7578125 C27.44798828 21.24443359 26.60300781 21.73105469 25.73242188 22.23242188 C24.84361328 22.73193359 23.95480469 23.23144531 23.0390625 23.74609375 C22.15412109 24.25720703 21.26917969 24.76832031 20.35742188 25.29492188 C13.75969 29.05859375 13.75969 29.05859375 11.4765625 29.05859375 C11.7653125 29.96738281 12.0540625 30.87617187 12.3515625 31.8125 C17.71445263 49.96811762 16.33213691 67.15895369 7.359375 83.921875 C2.19466898 92.52614664 -3.93184824 97.86139733 -13.5234375 101.05859375 C-22.4368583 102.26641578 -29.10735266 100.00973349 -36.5234375 95.05859375 C-47.22535875 86.10717263 -51.60540486 71.39995352 -53.5234375 58.05859375 C-54.01223435 50.65144144 -53.63379525 44.31053713 -51.19140625 37.29296875 C-50.23672849 34.09954372 -50.30769916 31.36658169 -50.5234375 28.05859375 C-54.1534375 26.07859375 -57.7834375 24.09859375 -61.5234375 22.05859375 C-61.1934375 23.04859375 -60.8634375 24.03859375 -60.5234375 25.05859375 C-60.8534375 25.71859375 -61.1834375 26.37859375 -61.5234375 27.05859375 C-61.85580729 32.99237214 -61.62716215 38.94122943 -61.19140625 44.86328125 C-61.13388184 45.69158447 -61.07635742 46.5198877 -61.01708984 47.37329102 C-60.89892531 49.00259199 -60.76582556 50.63089886 -60.61572266 52.25756836 C-60.20560082 57.97341596 -61.19780072 61.81544863 -63.5234375 67.05859375 C-65.5234375 66.05859375 -65.5234375 66.05859375 -66.63671875 63.421875 C-67.57490202 59.86339131 -67.75550638 56.92100014 -67.7109375 53.24609375 C-67.69546875 51.94285156 -67.68 50.63960937 -67.6640625 49.296875 C-67.52300292 44.11779973 -67.19787146 38.94672358 -66.79174805 33.78198242 C-66.57635743 30.79187484 -66.49379882 28.19768245 -67.12109375 25.25390625 C-67.5234375 23.05859375 -67.5234375 23.05859375 -65.5234375 20.05859375 C-66.5134375 19.39859375 -67.5034375 18.73859375 -68.5234375 18.05859375 C-68.5234375 16.73859375 -68.5234375 15.41859375 -68.5234375 14.05859375 C-57.37459863 9.24638335 -57.37459863 9.24638335 -52.06518555 6.98999023 C-50.7713145 6.43995814 -49.4774506 5.88990923 -48.18359375 5.33984375 C-47.53579453 5.06459366 -46.8879953 4.78934357 -46.2205658 4.50575256 C-42.15104166 2.77066633 -38.11132303 0.97951433 -34.08203125 -0.84765625 C-32.16680342 -1.69171661 -30.25144698 -2.53548526 -28.3359375 -3.37890625 C-27.47210449 -3.78616943 -26.60827148 -4.19343262 -25.71826172 -4.61303711 C-24.89729004 -4.96760986 -24.07631836 -5.32218262 -23.23046875 -5.6875 C-22.18596558 -6.16207642 -22.18596558 -6.16207642 -21.12036133 -6.64624023 C-14.13284055 -7.44044091 -6.30930886 -2.69673636 0 0 Z M-63.5234375 20.05859375 C-63.5234375 20.71859375 -63.5234375 21.37859375 -63.5234375 22.05859375 C-62.8634375 21.72859375 -62.2034375 21.39859375 -61.5234375 21.05859375 C-62.1834375 20.72859375 -62.8434375 20.39859375 -63.5234375 20.05859375 Z M-43.5234375 44.05859375 C-43.5234375 49.33859375 -43.5234375 54.61859375 -43.5234375 60.05859375 C-44.8434375 59.72859375 -46.1634375 59.39859375 -47.5234375 59.05859375 C-46.28700036 71.08187907 -42.54676372 81.23384236 -33.453125 89.50390625 C-28.03374429 93.87012796 -22.43059065 95.39247427 -15.5234375 95.05859375 C-7.97349194 93.09118123 -2.00771076 88.68707585 2.359375 82.30859375 C7.08268698 74.2453666 9.51796687 66.32102403 10.4765625 57.05859375 C9.9815625 56.06859375 9.9815625 56.06859375 9.4765625 55.05859375 C8.4865625 55.71859375 7.4965625 56.37859375 6.4765625 57.05859375 C5.8165625 53.75859375 5.1565625 50.45859375 4.4765625 47.05859375 C-0.97327354 45.69613474 -3.99294701 48.00349916 -8.68359375 50.52148438 C-13.59104808 53.00519599 -17.01034797 53.66269339 -22.5234375 53.05859375 C-26.12109375 51.59765625 -26.12109375 51.59765625 -29.5859375 49.68359375 C-34.4135045 47.04445138 -38.08218615 45.61323699 -43.5234375 44.05859375 Z " fill="#0383FB" transform="translate(124.5234375,7.94140625)"/>
<path d="M0 0 C0.88671875 1.828125 0.88671875 1.828125 1.6875 4.25 C5.90230912 15.84327051 5.90230912 15.84327051 14.296875 24.046875 C16.7130618 24.41549424 16.7130618 24.41549424 20 24 C18.89623511 19.58494045 17.72476317 16.59173327 15 13 C15 11.68 15 10.36 15 9 C15.825 9.165 16.65 9.33 17.5 9.5 C23.50470492 10.35781499 29.03731689 10.19253662 35 9 C34.61912809 12.33262917 34.10840904 13.86859511 31.9375 16.5 C29.74838462 19.32466501 29.60287146 20.52512531 30 24 C33.20779359 24.11255416 35.05569431 24.11769777 38 23 C40.93057234 20.026779 42.92806162 16.60652825 45 13 C45.85851562 11.51306641 45.85851562 11.51306641 46.734375 9.99609375 C49.72263336 4.65821103 49.72263336 4.65821103 52 -1 C63.02082952 0.25828368 74.5781088 4.32530875 82 13 C82.43183594 13.84691406 82.86367187 14.69382812 83.30859375 15.56640625 C84.97550309 18.74211699 86.19039019 20.73169116 89 23 C93.01882431 23.89600017 97.06017445 23.87325382 101.15917969 23.71411133 C105.42133883 23.59268836 107.41741282 23.62021215 111.0859375 26.01171875 C114.72122164 31.68721338 112.93284561 38.50694693 111.57885742 44.80541992 C111.42761917 45.53982803 111.27638092 46.27423615 111.12055969 47.03089905 C110.62363342 49.43252622 110.11505258 51.83149802 109.60546875 54.23046875 C109.25349781 55.91090467 108.90196788 57.59143301 108.55085754 59.27204895 C107.81550252 62.78236246 107.07424186 66.29136351 106.32885742 69.79956055 C105.37549992 74.28935975 104.43791309 78.78228397 103.50481701 83.2763319 C102.78311395 86.74274653 102.05263085 90.2072662 101.31954384 93.67128944 C100.970284 95.32725425 100.62384726 96.98381714 100.28032494 98.64098167 C99.79896327 100.95691629 99.305705 103.27000791 98.80932617 105.58276367 C98.67050018 106.26287506 98.53167419 106.94298645 98.38864136 107.64370728 C97.28997538 112.67013903 95.64658613 116.35341387 92 120 C94.31 120.66 96.62 121.32 99 122 C99.6875 124.3125 99.6875 124.3125 100 127 C98.88011932 128.64415932 98.88011932 128.64415932 97 130 C94.40595245 130.37752342 94.40595245 130.37752342 91.23059082 130.38095093 C90.02757828 130.3894104 88.82456573 130.39786987 87.58509827 130.40658569 C86.2500902 130.40075265 84.91508347 130.39460813 83.58007812 130.38818359 C82.17564994 130.3922482 80.77122495 130.39758946 79.36680603 130.40411377 C75.55070871 130.41780656 71.73485432 130.41248075 67.91875267 130.40297651 C63.92829094 130.39539003 59.93785023 130.40242271 55.9473877 130.40713501 C49.24564879 130.41259552 42.54400902 130.40539323 35.84228516 130.39111328 C28.09019734 130.37478615 20.33834621 130.38007445 12.58626413 130.3965925 C5.93481114 130.41019898 -0.71657052 130.41213115 -7.36803293 130.40427649 C-11.34255765 130.39959534 -15.31697105 130.39898718 -19.29148865 130.40888596 C-23.02782224 130.41754123 -26.76385017 130.4115604 -30.50015068 130.39420319 C-31.87278676 130.39023059 -33.24544848 130.3913856 -34.61807442 130.39799118 C-36.48890398 130.40616539 -38.35978965 130.39410623 -40.23059082 130.38095093 C-41.27846016 130.37981985 -42.3263295 130.37868877 -43.40595245 130.37752342 C-46 130 -46 130 -47.88011932 128.64415932 C-49 127 -49 127 -48.6875 124.3125 C-48.460625 123.549375 -48.23375 122.78625 -48 122 C-44.04 121.01 -44.04 121.01 -40 120 C-40.79059814 119.45835205 -41.58119629 118.9167041 -42.39575195 118.35864258 C-45.43139729 115.6092876 -45.87854226 114.22198225 -46.66796875 110.26171875 C-46.91667725 109.07126953 -47.16538574 107.88082031 -47.42163086 106.65429688 C-47.67727363 105.33209946 -47.93255152 104.00983146 -48.1875 102.6875 C-48.46882204 101.30363606 -48.75216595 99.92018187 -49.03735352 98.53710938 C-49.50456164 96.26585988 -49.96920566 93.99423499 -50.42625427 91.72091675 C-51.77155633 85.03395093 -53.21264323 78.36996211 -54.671875 71.70703125 C-55.36499088 68.52461292 -56.05723208 65.3420056 -56.74917603 62.15933228 C-57.20618368 60.06171677 -57.665132 57.96452309 -58.12606812 55.86776733 C-58.77828796 52.89268848 -59.41964703 49.91545377 -60.05859375 46.9375 C-60.25511536 46.05218094 -60.45163696 45.16686188 -60.65411377 44.25471497 C-63.4105668 31.26581573 -63.4105668 31.26581573 -60.14453125 26.01953125 C-55.64136775 23.12743743 -51.91596862 23.447323 -46.6875 23.6875 C-45.75615234 23.71005859 -44.82480469 23.73261719 -43.86523438 23.75585938 C-41.5751604 23.81457922 -39.28842125 23.89663142 -37 24 C-36.75378906 23.27683594 -36.50757812 22.55367187 -36.25390625 21.80859375 C-32.29515592 12.94148632 -23.47424102 5.6870216 -14.609375 2.0078125 C-4.51033225 -1.50344408 -4.51033225 -1.50344408 0 0 Z M-60 31 C-60.39126079 33.06481384 -60.39126079 33.06481384 -59.95678711 35.27246094 C-59.82811249 36.15542847 -59.69943787 37.038396 -59.56686401 37.94812012 C-58.40389922 44.20928463 -57.08102844 50.42693895 -55.69140625 56.640625 C-55.36091262 58.13644502 -55.03083694 59.63235745 -54.70115662 61.12835693 C-54.01293118 64.24555788 -53.3208512 67.36186821 -52.62573242 70.47753906 C-51.73752932 74.45935029 -50.85730252 78.44287199 -49.97972202 82.42703629 C-49.30022653 85.50917595 -48.61742678 88.59057596 -47.93354607 91.6717453 C-47.60782589 93.14029928 -47.28290969 94.60903183 -46.95883369 96.07794952 C-46.50514341 98.13114664 -46.04722682 100.18335645 -45.58813477 102.23535156 C-45.3291188 103.39987854 -45.07010284 104.56440552 -44.80323792 105.76422119 C-43.58344867 111.75504249 -43.58344867 111.75504249 -40.25737762 116.64856434 C-37.52949296 118.28168083 -35.89687471 118.37937635 -32.73121643 118.38768005 C-31.66434601 118.39758469 -30.59747559 118.40748932 -29.49827576 118.41769409 C-28.33296829 118.41319244 -27.16766083 118.4086908 -25.96704102 118.40405273 C-24.73578491 118.41091599 -23.50452881 118.41777924 -22.23596191 118.42485046 C-18.86181736 118.44001769 -15.48822515 118.44161199 -12.11408734 118.43590808 C-9.29597665 118.43281733 -6.47791597 118.43890743 -3.65981239 118.44494683 C2.98928524 118.4589935 9.63825439 118.45742978 16.28735352 118.44604492 C23.14369446 118.43456453 29.99964421 118.44863735 36.85593361 118.4754414 C42.74566826 118.49760349 48.63528017 118.50423463 54.52505356 118.49836498 C58.04137384 118.49499524 61.55744339 118.49741119 65.07372856 118.51461601 C68.99519033 118.53296589 72.91617164 118.5188927 76.83764648 118.50170898 C78.00092972 118.51137695 79.16421295 118.52104492 80.36274719 118.53100586 C86.49622148 118.4840087 86.49622148 118.4840087 92.14732361 116.34458923 C94.36046797 113.54382248 95.05869573 111.47327197 95.80517578 107.98486328 C96.07540558 106.76904572 96.34563538 105.55322815 96.62405396 104.30056763 C96.89821427 102.97390006 97.1719562 101.64714597 97.4453125 100.3203125 C97.74315319 98.94672086 98.04273403 97.57350551 98.34396362 96.20065308 C99.13284267 92.58299902 99.89802746 88.96072797 100.6583252 85.3369751 C101.42603154 81.69815146 102.2158548 78.06414871 103.00390625 74.4296875 C104.42952061 67.83916174 105.83714661 61.24513847 107.22271729 54.64605713 C107.75509258 52.14880522 108.30320973 49.654872 108.86468506 47.16400146 C109.13992004 45.93409485 109.41515503 44.70418823 109.69873047 43.43701172 C109.94847626 42.34266815 110.19822205 41.24832458 110.45553589 40.12081909 C111.01531301 36.91222724 111.37715399 34.24153726 111 31 C108.81087004 28.07369548 107.61594772 27.10243877 103.97335052 26.49663544 C102.18364712 26.49437328 102.18364712 26.49437328 100.35778809 26.49206543 C99.69157362 26.48582547 99.02535914 26.4795855 98.33895636 26.47315645 C96.10777177 26.4572082 93.87767695 26.46983663 91.64648438 26.48242188 C90.04648705 26.47700152 88.44649471 26.46987935 86.84651184 26.46118164 C82.50145308 26.44293485 78.15677391 26.4500213 73.81170845 26.46269798 C69.26651098 26.47281867 64.7213462 26.4634349 60.17614746 26.45715332 C52.54299071 26.44987419 44.90998873 26.45947155 37.27685547 26.47851562 C28.44942685 26.50028491 19.62236776 26.49323373 10.7949481 26.47121 C3.21861465 26.45306354 -4.35760751 26.45049398 -11.93395567 26.46096468 C-16.4601672 26.46720377 -20.98620499 26.46802387 -25.5124054 26.45481873 C-29.7675489 26.44327175 -34.02221557 26.45126454 -38.27730751 26.47439575 C-39.83980327 26.47968906 -41.40233909 26.47815841 -42.96481895 26.46934509 C-45.09635207 26.45842963 -47.2263529 26.47210177 -49.35778809 26.49206543 C-50.55092369 26.49357353 -51.7440593 26.49508163 -52.97335052 26.49663544 C-56.60160407 27.10005327 -57.79179942 28.11379334 -60 31 Z " fill="#338FDB" transform="translate(80,103)"/>
<path d="M0 0 C11.22711166 1.28183558 22.27960493 5.4322445 30 14 C37 22.83992095 37 22.83992095 37 27 C33.93176153 28.53411924 30.7173082 28.14202568 27.3515625 28.1328125 C26.19991104 28.13424759 26.19991104 28.13424759 25.0249939 28.13571167 C23.39247557 28.13639337 21.75995455 28.13453976 20.12744141 28.13037109 C17.66953129 28.12509558 15.2118101 28.13027796 12.75390625 28.13671875 C4.11989338 28.1400084 -4.40535071 27.9350808 -13 27 C-11.70771446 21.50076318 -9.70280096 17.55751481 -6.5 12.9375 C-3.63293017 8.77429476 -1.37633416 4.91441056 0 0 Z " fill="#0384FB" transform="translate(132,102)"/>
<path d="M0 0 C0.88671875 1.828125 0.88671875 1.828125 1.6875 4.25 C3.8474072 10.11986544 6.98812752 15.0055456 10.390625 20.21484375 C12 23 12 23 12 26 C-4.17 26 -20.34 26 -37 26 C-35.2462573 17.2312865 -29.11342085 11.18028872 -22 6 C-15.73162179 2.17213737 -7.39885162 -2.46628387 0 0 Z " fill="#0683F6" transform="translate(80,103)"/>
<path d="M0 0 C1.13695816 -0.00426498 2.27391632 -0.00852997 3.44532776 -0.01292419 C4.69884033 -0.01247101 5.95235291 -0.01201782 7.24385071 -0.0115509 C8.55938431 -0.01490952 9.87491791 -0.01826813 11.23031616 -0.02172852 C14.84625953 -0.030581 18.46217924 -0.03290724 22.07813239 -0.0335443 C25.0972493 -0.0344931 28.11636068 -0.03817133 31.13547546 -0.0417164 C38.26209817 -0.04986682 45.38870825 -0.05230022 52.51533508 -0.05158997 C59.86112576 -0.05099001 67.20684281 -0.06152404 74.55261487 -0.07733363 C80.86099616 -0.09042563 87.16935345 -0.09577312 93.47774822 -0.09513456 C97.24448628 -0.09487992 101.01115902 -0.09771168 104.77788353 -0.10831261 C108.32454514 -0.11802075 111.87107939 -0.11805423 115.41774559 -0.11079597 C117.33318577 -0.10925775 119.24862601 -0.11757922 121.16404724 -0.12623596 C127.04257979 -0.10481441 132.10554173 0.09262012 137.64350891 2.13371277 C137.31350891 3.45371277 136.98350891 4.77371277 136.64350891 6.13371277 C118.31121435 6.18039968 99.97893518 6.21568535 81.64659405 6.23733711 C73.13488467 6.24765687 64.62321219 6.26173055 56.11152649 6.28459167 C48.69415777 6.30450416 41.27681578 6.31742411 33.85942107 6.32188976 C29.93068848 6.32450078 26.00203234 6.33065228 22.0733242 6.34517288 C18.37733275 6.358723 14.68144942 6.36294065 10.98543549 6.35992813 C8.9785474 6.36074281 6.97167115 6.37151787 4.96481323 6.3825531 C3.17903366 6.37842911 3.17903366 6.37842911 1.35717773 6.3742218 C-0.19834793 6.37698718 -0.19834793 6.37698718 -1.78529835 6.37980843 C-4.35649109 6.13371277 -4.35649109 6.13371277 -7.35649109 4.13371277 C-7.35649109 3.14371277 -7.35649109 2.15371277 -7.35649109 1.13371277 C-4.76758441 -0.16074057 -2.900096 0.00489942 0 0 Z " fill="#0284F8" transform="translate(40.35649108886719,224.8662872314453)"/>
<path d="M0 0 C0.33 0 0.66 0 1 0 C1 7.92 1 15.84 1 24 C1.99 22.35 2.98 20.7 4 19 C4.66 19 5.32 19 6 19 C6 14.71 6 10.42 6 6 C7.65 5.67 9.3 5.34 11 5 C11.33 5.66 11.66 6.32 12 7 C10.68 6.67 9.36 6.34 8 6 C8.33 11.28 8.66 16.56 9 22 C8.34 22.33 7.68 22.66 7 23 C6.34 22.67 5.68 22.34 5 22 C6.24960816 32.94484386 9.91317229 43.16449087 18.29296875 50.66796875 C23.66081244 54.8566065 29.2445294 56.33624514 36 56 C44.68487523 53.64407076 50.19071821 48.79166128 54.6875 41.1875 C58.54188498 33.75160686 59.88922967 26.24085797 61 18 C59.02 18.99 59.02 18.99 57 20 C57 17.36 57 14.72 57 12 C57.495 13.485 57.495 13.485 58 15 C59.65 14.67 61.3 14.34 63 14 C63.99 15.98 63.99 15.98 65 18 C65.33 14.04 65.66 10.08 66 6 C66.33 6 66.66 6 67 6 C67.6613458 23.48892239 64.91515824 39.56795502 53.625 53.5625 C48.18104254 59.30205696 40.98829958 63.05343042 33.0625 63.4375 C25.27029794 63.34461282 18.83089778 60.20428253 12.8984375 55.2421875 C1.51301063 43.25488785 -2.25959975 26.16553715 -2.16796875 10.1484375 C-1.96941466 6.42670261 -1.29384987 3.47722153 0 0 Z " fill="#147FE1" transform="translate(73,46)"/>
<path d="M0 0 C2.62118548 -0.00321956 5.24237079 -0.00658414 7.86355591 -0.01008606 C13.32831107 -0.01643623 18.79305414 -0.01797277 24.2578125 -0.01733398 C30.54956334 -0.01673124 36.84122902 -0.02733764 43.13295829 -0.04307765 C49.22944604 -0.05777736 55.32589308 -0.06132094 61.42239761 -0.06072426 C63.99868241 -0.06190027 66.57496791 -0.06630069 69.1512413 -0.07405663 C72.75177832 -0.08389177 76.35209591 -0.08096566 79.95263672 -0.07495117 C81.53010933 -0.08338043 81.53010933 -0.08338043 83.13945007 -0.09197998 C89.57080035 -0.06478369 95.50505652 0.65472748 101.7578125 2.16796875 C102.4453125 4.48046875 102.4453125 4.48046875 102.7578125 7.16796875 C101.68090057 8.95665932 101.68090057 8.95665932 99.7578125 10.16796875 C97.16376495 10.54549217 97.16376495 10.54549217 93.98840332 10.54891968 C92.78539078 10.55737915 91.58237823 10.56583862 90.34291077 10.57455444 C89.0079027 10.5687214 87.67289597 10.56257688 86.33789062 10.55615234 C84.93346244 10.56021695 83.52903745 10.56555821 82.12461853 10.57208252 C78.30852121 10.58577531 74.49266682 10.5804495 70.67656517 10.57094526 C66.68610344 10.56335878 62.69566273 10.57039146 58.7052002 10.57510376 C52.00346129 10.58056427 45.30182152 10.57336198 38.60009766 10.55908203 C30.84800984 10.5427549 23.09615871 10.5480432 15.34407663 10.56456125 C8.69262364 10.57816773 2.04124198 10.5800999 -4.61022043 10.57224524 C-8.58474515 10.56756409 -12.55915855 10.56695593 -16.53367615 10.57685471 C-20.27000974 10.58550998 -24.00603767 10.57952915 -27.74233818 10.56217194 C-29.11497426 10.55819934 -30.48763598 10.55935435 -31.86026192 10.56595993 C-33.73109148 10.57413414 -35.60197715 10.56207498 -37.47277832 10.54891968 C-38.52064766 10.5477886 -39.568517 10.54665752 -40.64813995 10.54549217 C-43.2421875 10.16796875 -43.2421875 10.16796875 -45.11449432 8.80822182 C-46.2421875 7.16796875 -46.2421875 7.16796875 -46.0546875 4.54296875 C-45.2421875 2.16796875 -45.2421875 2.16796875 -43.2421875 1.16796875 C-28.93222338 -0.45509273 -14.37374244 0.00417213 0 0 Z M-44.2421875 3.16796875 C-44.2421875 4.15796875 -44.2421875 5.14796875 -44.2421875 6.16796875 C-40.80459511 8.45969701 -39.5715333 8.41566536 -35.52851868 8.40847778 C-33.74273911 8.41260178 -33.74273911 8.41260178 -31.92088318 8.41680908 C-29.95938072 8.40602325 -29.95938072 8.40602325 -27.95825195 8.39501953 C-26.56866463 8.39445544 -25.17907672 8.39477193 -23.78948975 8.39590454 C-20.01494232 8.39647915 -16.2405216 8.38470734 -12.46600366 8.37075663 C-8.52219803 8.35826733 -4.57838961 8.35708019 -0.63456726 8.35470581 C6.8345884 8.34848574 14.30368562 8.33206781 21.77281553 8.31200683 C30.27573808 8.28966421 38.7786634 8.27865853 47.28160799 8.26861596 C64.77370998 8.24770203 82.26575506 8.21251582 99.7578125 8.16796875 C100.0878125 6.84796875 100.4178125 5.52796875 100.7578125 4.16796875 C94.06222553 1.70021968 87.58400306 1.89308013 80.51049805 1.92504883 C79.17282519 1.92397459 77.83515279 1.92203381 76.4974823 1.91929626 C72.88212889 1.91446971 69.26689987 1.92207443 65.6515615 1.93224931 C61.86486191 1.94105858 58.07816588 1.93927186 54.29145813 1.93888855 C47.93899462 1.93982342 41.58657906 1.94848645 35.23413086 1.9621582 C27.8853147 1.97791566 20.53655088 1.98315505 13.18771905 1.98242265 C6.11572206 1.981813 -0.95625787 1.98691048 -8.02824974 1.99521446 C-11.03818075 1.99874857 -14.04810573 2.00057788 -17.05803871 2.00110817 C-21.25266634 2.00229632 -25.4472316 2.01199605 -29.6418457 2.02270508 C-30.89535828 2.02225189 -32.14887085 2.02179871 -33.44036865 2.02133179 C-34.57732681 2.02559677 -35.71428497 2.02986176 -36.88569641 2.03425598 C-37.87767186 2.03593183 -38.86964731 2.03760767 -39.89168262 2.0393343 C-42.26339177 2.01287512 -42.26339177 2.01287512 -44.2421875 3.16796875 Z " fill="#2F9AE8" transform="translate(77.2421875,222.83203125)"/>
<path d="M0 0 C3.06398451 -0.13530844 6.12197126 -0.2342407 9.1875 -0.3125 C10.05181641 -0.35439453 10.91613281 -0.39628906 11.80664062 -0.43945312 C16.15460594 -0.52274748 18.38752856 -0.39729954 22.11328125 2.01953125 C25.71009185 7.70144944 23.93043885 14.51814267 22.57885742 20.80541992 C22.42761917 21.53982803 22.27638092 22.27423615 22.12055969 23.03089905 C21.62363342 25.43252622 21.11505258 27.83149802 20.60546875 30.23046875 C20.25349781 31.91090467 19.90196788 33.59143301 19.55085754 35.27204895 C18.81550252 38.78236246 18.07424186 42.29136351 17.32885742 45.79956055 C16.37549992 50.28935975 15.43791309 54.78228397 14.50481701 59.2763319 C13.78311395 62.74274653 13.05263085 66.2072662 12.31954384 69.67128944 C11.970284 71.32725425 11.62384726 72.98381714 11.28032494 74.64098167 C10.79896327 76.95691629 10.305705 79.27000791 9.80932617 81.58276367 C9.67050018 82.26287506 9.53167419 82.94298645 9.38864136 83.64370728 C8.28997538 88.67013903 6.64658613 92.35341387 3 96 C0.74764347 96.26729965 0.74764347 96.26729965 -2.11766052 96.29193115 C-3.20150024 96.30598495 -4.28533997 96.32003876 -5.40202332 96.33451843 C-6.5963649 96.33982071 -7.79070648 96.34512299 -9.02124023 96.35058594 C-10.9017659 96.37047325 -10.9017659 96.37047325 -12.82028198 96.39076233 C-16.2644945 96.4248788 -19.70854098 96.45001603 -23.1528461 96.4705801 C-26.75364446 96.49362206 -30.35435768 96.52629651 -33.95509338 96.55743408 C-40.00363508 96.60811299 -46.05219399 96.65038276 -52.10083008 96.68798828 C-59.09689312 96.73161302 -66.09272662 96.78967518 -73.08861583 96.85523582 C-79.09030433 96.91109342 -85.09201832 96.95907728 -91.09382397 97.0004847 C-94.68049092 97.02524266 -98.26707987 97.05276118 -101.85366631 97.08739471 C-105.85221429 97.12549332 -109.85068532 97.14708876 -113.84936523 97.16699219 C-115.04168259 97.18039139 -116.23399994 97.19379059 -117.46244812 97.20759583 C-118.54910767 97.21037033 -119.63576721 97.21314484 -120.75535583 97.21600342 C-122.17424685 97.22593386 -122.17424685 97.22593386 -123.62180233 97.23606491 C-126 97 -126 97 -129 95 C-126.48921321 93.7446066 -124.77573362 93.86969841 -121.96499634 93.86196899 C-120.89943008 93.85651566 -119.83386383 93.85106232 -118.73600769 93.84544373 C-117.56193863 93.8444014 -116.38786957 93.84335907 -115.17822266 93.84228516 C-113.94565231 93.83720444 -112.71308197 93.83212372 -111.44316101 93.82688904 C-108.7590656 93.81616629 -106.07502233 93.80717106 -103.39091873 93.80076981 C-99.14699404 93.79009816 -94.90314931 93.76985574 -90.65927124 93.74765015 C-78.59026754 93.68569723 -66.52126837 93.63170334 -54.45214844 93.59863281 C-47.78875449 93.58029418 -41.12549428 93.55136834 -34.46219862 93.5106281 C-30.93532229 93.4895459 -27.40861457 93.47409915 -23.88167191 93.47182083 C-19.94782974 93.4692767 -16.01431851 93.44382641 -12.08056641 93.41650391 C-10.32553551 93.42101311 -10.32553551 93.42101311 -8.53504944 93.4256134 C-7.46384354 93.41452042 -6.39263763 93.40342743 -5.28897095 93.39199829 C-4.35871408 93.38868814 -3.42845722 93.385378 -2.47001076 93.38196754 C0.48352777 92.92522627 1.8452688 92.04295753 4 90 C5.08603656 87.28594648 5.08603656 87.28594648 5.69165039 84.09838867 C5.96195572 82.88249557 6.23226105 81.66660248 6.51075745 80.41386414 C6.79005559 79.08196856 7.06901291 77.75000147 7.34765625 76.41796875 C7.64725499 75.04301809 7.94825814 73.66837276 8.25059509 72.29402161 C9.04439293 68.66750056 9.81898368 65.03713417 10.58966064 61.40563965 C11.36663622 57.76076468 12.16159889 54.11982641 12.95507812 50.47851562 C14.39149246 43.87338675 15.81461291 37.26562127 17.21585083 30.65292358 C17.75251542 28.15289575 18.30357623 25.65592683 18.86691284 23.16177368 C19.14213776 21.93187714 19.41736267 20.70198059 19.70092773 19.43481445 C19.95035629 18.34078812 20.19978485 17.24676178 20.45677185 16.11958313 C21.55606318 10.41248185 21.55606318 10.41248185 19.79174805 5.15698242 C17.52453112 3.69297629 16.02240914 3.57396207 13.33203125 3.48828125 C12.43935547 3.45283203 11.54667969 3.41738281 10.62695312 3.38085938 C9.69818359 3.35830078 8.76941406 3.33574219 7.8125 3.3125 C6.87212891 3.27833984 5.93175781 3.24417969 4.96289062 3.20898438 C2.64204607 3.12651782 0.32157852 3.05736597 -2 3 C-1.34 2.67 -0.68 2.34 0 2 C0 1.34 0 0.68 0 0 Z " fill="#4193D3" transform="translate(169,127)"/>
<path d="M0 0 C0.66 0.33 1.32 0.66 2 1 C1.01 1.33 0.02 1.66 -1 2 C-1 2.66 -1 3.32 -1 4 C0.32 4 1.64 4 3 4 C3 4.66 3 5.32 3 6 C4.32 6 5.64 6 7 6 C7 6.66 7 7.32 7 8 C8.32 8 9.64 8 11 8 C11.33 9.32 11.66 10.64 12 12 C7.25 10.125 7.25 10.125 5 9 C5.33 9.99 5.66 10.98 6 12 C5.67 12.66 5.34 13.32 5 14 C4.66763021 19.93377839 4.89627535 25.88263568 5.33203125 31.8046875 C5.38955566 32.63299072 5.44708008 33.46129395 5.50634766 34.31469727 C5.62451219 35.94399824 5.75761194 37.57230511 5.90771484 39.19897461 C6.31783668 44.91482221 5.32563678 48.75685488 3 54 C1 53 1 53 -0.11328125 50.36328125 C-1.05146452 46.80479756 -1.23206888 43.86240639 -1.1875 40.1875 C-1.17203125 38.88425781 -1.1565625 37.58101562 -1.140625 36.23828125 C-0.99956542 31.05920598 -0.67443396 25.88812983 -0.26831055 20.72338867 C-0.05291993 17.73328109 0.02963868 15.1390887 -0.59765625 12.1953125 C-1 10 -1 10 1 7 C0.01 6.34 -0.98 5.68 -2 5 C-2 3.68 -2 2.36 -2 1 C-1.34 0.67 -0.68 0.34 0 0 Z M3 7 C3 7.66 3 8.32 3 9 C3.66 8.67 4.32 8.34 5 8 C4.34 7.67 3.68 7.34 3 7 Z " fill="#207ED4" transform="translate(58,21)"/>
<path d="M0 0 C3.06398451 -0.13530844 6.12197126 -0.2342407 9.1875 -0.3125 C10.05181641 -0.35439453 10.91613281 -0.39628906 11.80664062 -0.43945312 C16.15460594 -0.52274748 18.38752856 -0.39729954 22.11328125 2.01953125 C26.22968587 8.5222574 23.42712005 16.84062061 21.8828125 23.921875 C21.55698685 25.45548676 21.55698685 25.45548676 21.22457886 27.02008057 C20.76609963 29.16901076 20.30363706 31.31709457 19.83740234 33.46435547 C19.12468682 36.75144439 18.42666578 40.04140863 17.73046875 43.33203125 C17.28211588 45.42466487 16.8329261 47.5171194 16.3828125 49.609375 C16.17439728 50.59170105 15.96598206 51.5740271 15.75125122 52.58612061 C15.55119476 53.50097229 15.35113831 54.41582397 15.14501953 55.35839844 C14.97181183 56.1603363 14.79860413 56.96227417 14.62014771 57.78851318 C13.98809787 60.04244375 13.11472834 61.94700624 12 64 C11.67 63.67 11.34 63.34 11 63 C11.16471778 56.36791725 12.53475173 49.91224679 14.06640625 43.484375 C14.26475571 42.62491272 14.46310516 41.76545044 14.66746521 40.87994385 C15.50557 37.24882374 16.35799141 33.62110938 17.2097168 29.99316406 C17.83394459 27.3247748 18.45037725 24.65466686 19.06640625 21.984375 C19.26013321 21.17176208 19.45386017 20.35914917 19.65345764 19.52191162 C20.62443328 15.30734188 21.5103364 11.3461428 21 7 C19.90541115 5.05894373 19.90541115 5.05894373 18 4 C15.7856493 3.49844978 15.7856493 3.49844978 13.33203125 3.48828125 C12.43935547 3.45283203 11.54667969 3.41738281 10.62695312 3.38085938 C9.69818359 3.35830078 8.76941406 3.33574219 7.8125 3.3125 C6.87212891 3.27833984 5.93175781 3.24417969 4.96289062 3.20898438 C2.64204607 3.12651782 0.32157852 3.05736597 -2 3 C-1.34 2.67 -0.68 2.34 0 2 C0 1.34 0 0.68 0 0 Z " fill="#5494BF" transform="translate(169,127)"/>
<path d="M0 0 C1.2375 0.2475 1.2375 0.2475 2.5 0.5 C8.50470492 1.35781499 14.03731689 1.19253662 20 0 C19.4739075 3.78786597 18.61896089 6.17152224 16 9 C15.34 9 14.68 9 14 9 C14 11.31 14 13.62 14 16 C11.36 16 8.72 16 6 16 C6 13.69 6 11.38 6 9 C5.38125 8.731875 4.7625 8.46375 4.125 8.1875 C2 7 2 7 0 4 C0 2.68 0 1.36 0 0 Z " fill="#0483F7" transform="translate(95,112)"/>
<path d="M0 0 C0.33 1.32 0.66 2.64 1 4 C0.34 4 -0.32 4 -1 4 C-1.1546875 5.6396875 -1.1546875 5.6396875 -1.3125 7.3125 C-2 11 -2 11 -3.4375 12.9375 C-5 14 -5 14 -7 14 C-6.67 14.66 -6.34 15.32 -6 16 C7.86 16 21.72 16 36 16 C35.01 14.35 34.02 12.7 33 11 C32.3125 7.1875 32.3125 7.1875 32 4 C35.58707329 7.38779144 38.49689539 10.73545141 41 15 C41 15.99 41 16.98 41 18 C37.93176153 19.53411924 34.7173082 19.14202568 31.3515625 19.1328125 C30.19991104 19.13424759 30.19991104 19.13424759 29.0249939 19.13571167 C27.39247557 19.13639337 25.75995455 19.13453976 24.12744141 19.13037109 C21.66953129 19.12509558 19.2118101 19.13027796 16.75390625 19.13671875 C8.11989338 19.1400084 -0.40535071 18.9350808 -9 18 C-7.60904805 11.04524026 -3.93477604 5.81799773 0 0 Z " fill="#218AE5" transform="translate(128,111)"/>
<path d="M0 0 C0.66 0 1.32 0 2 0 C0.41391542 7.93042289 -2.58818993 12.29314851 -9 17 C-12.7367843 19.49118953 -14.74451819 19.2065226 -19.1875 19.125 C-20.45980469 19.10695313 -21.73210937 19.08890625 -23.04296875 19.0703125 C-24.01878906 19.04710938 -24.99460937 19.02390625 -26 19 C-26 18.34 -26 17.68 -26 17 C-23.03 16.67 -20.06 16.34 -17 16 C-17 15.01 -17 14.02 -17 13 C-15.80375 12.484375 -14.6075 11.96875 -13.375 11.4375 C-9.3040233 9.44164063 -6.98237109 7.0160706 -4.32421875 3.390625 C-3.88722656 2.93171875 -3.45023438 2.4728125 -3 2 C-2.01 2 -1.02 2 0 2 C0 1.34 0 0.68 0 0 Z " fill="#157FDF" transform="translate(129,88)"/>
<path d="M0 0 C0.33 0 0.66 0 1 0 C1 7.92 1 15.84 1 24 C1.99 22.35 2.98 20.7 4 19 C4.66 19 5.32 19 6 19 C6 14.71 6 10.42 6 6 C7.65 5.67 9.3 5.34 11 5 C11.33 5.66 11.66 6.32 12 7 C10.68 6.67 9.36 6.34 8 6 C8.33 11.28 8.66 16.56 9 22 C8.34 22.33 7.68 22.66 7 23 C6.34 22.67 5.68 22.34 5 22 C5.33 25.63 5.66 29.26 6 33 C4 30 4 30 3 27 C2.67 29.31 2.34 31.62 2 34 C-3.20437223 26.19344165 -3.25992428 13.61460244 -1.546875 4.62109375 C-1 2.6875 -1 2.6875 0 0 Z " fill="#1E81D5" transform="translate(73,46)"/>
<path d="M0 0 C10.52114746 1.20123337 21.06819672 4.5828103 28 13 C25.18180107 12.56643093 23.73641805 11.81172718 21.375 10.125 C17.11728904 7.44421903 12.83637007 6.26166176 8 5 C7.67 6.32 7.34 7.64 7 9 C4 9 4 9 1.4375 8.4375 C-0.99764861 7.74957739 -0.99764861 7.74957739 -3 9 C-2.01 6.03 -1.02 3.06 0 0 Z " fill="#0C80ED" transform="translate(132,102)"/>
<path d="M0 0 C0.22139648 1.10512939 0.44279297 2.21025879 0.67089844 3.34887695 C1.49703987 7.45045843 2.34440871 11.54741221 3.19824219 15.64331055 C3.56472444 17.41620898 3.9254485 19.19030792 4.28027344 20.96557617 C4.79151107 23.51819424 5.32334751 26.06576902 5.859375 28.61328125 C6.01372009 29.40712723 6.16806519 30.20097321 6.3270874 31.01887512 C7.27797616 35.4784025 7.27797616 35.4784025 10.13378906 38.89916992 C10.74963867 39.26244385 11.36548828 39.62571777 12 40 C12 40.66 12 41.32 12 42 C9.6875 41.8125 9.6875 41.8125 7 41 C4.11731778 37.15404526 3.33812453 33.56728753 2.5625 28.875 C2.31989173 27.46576821 2.07499211 26.05692948 1.828125 24.6484375 C1.69857422 23.90303711 1.56902344 23.15763672 1.43554688 22.38964844 C0.64914562 18.07502094 -0.27271956 13.78891757 -1.1875 9.5 C-1.36659912 8.65679199 -1.54569824 7.81358398 -1.73022461 6.94482422 C-2.15192706 4.96288443 -2.575724 2.98139046 -3 1 C-1 0 -1 0 0 0 Z " fill="#3B8BCB" transform="translate(30,180)"/>
<path d="M0 0 C0.99 0.33 1.98 0.66 3 1 C2.23828542 4.9184796 1.4564921 8.83236553 0.65625 12.74316406 C0.38708894 14.07279382 0.12334395 15.40353235 -0.13476562 16.73535156 C-0.50770467 18.65455327 -0.90206626 20.56955261 -1.296875 22.484375 C-1.64250488 24.21252441 -1.64250488 24.21252441 -1.99511719 25.97558594 C-3.12448589 29.37466743 -4.11757324 30.89084459 -7 33 C-9.29003906 33.36230469 -9.29003906 33.36230469 -11.765625 33.171875 C-13.09980469 33.08486328 -13.09980469 33.08486328 -14.4609375 32.99609375 C-15.38132813 32.91488281 -16.30171875 32.83367187 -17.25 32.75 C-18.18585938 32.68425781 -19.12171875 32.61851562 -20.0859375 32.55078125 C-22.39271099 32.38601171 -24.69622128 32.20181863 -27 32 C-27 31.67 -27 31.34 -27 31 C-25.22882813 30.94392578 -25.22882813 30.94392578 -23.421875 30.88671875 C-21.86455212 30.82104851 -20.30726186 30.75460153 -18.75 30.6875 C-17.97269531 30.66494141 -17.19539062 30.64238281 -16.39453125 30.61914062 C-15.26337891 30.5659668 -15.26337891 30.5659668 -14.109375 30.51171875 C-13.41811523 30.48553467 -12.72685547 30.45935059 -12.01464844 30.43237305 C-9.27828445 29.84510928 -7.9808051 28.98708009 -6 27 C-4.90287932 24.12754695 -4.90287932 24.12754695 -4.296875 20.80078125 C-4.0390625 19.59228516 -3.78125 18.38378906 -3.515625 17.13867188 C-3.26296875 15.87603516 -3.0103125 14.61339844 -2.75 13.3125 C-2.481875 12.03826172 -2.21375 10.76402344 -1.9375 9.45117188 C-1.27730806 6.30347102 -0.63214333 3.15343243 0 0 Z " fill="#408BC5" transform="translate(179,190)"/>
<path d="M0 0 C0.66 0 1.32 0 2 0 C3.2883303 5.8884766 4.56988196 11.77837245 5.84521484 17.66967773 C6.27988349 19.67301076 6.71639141 21.67594564 7.15478516 23.6784668 C7.78513522 26.55935239 8.40882495 29.44161194 9.03125 32.32421875 C9.22811401 33.21711105 9.42497803 34.11000336 9.62780762 35.029953 C10.49558429 39.0777587 11.27061025 42.83185051 11 47 C10.34 47 9.68 47 9 47 C7.23757517 39.09688001 5.48175621 31.19232451 3.73095703 23.28662109 C3.13857101 20.62306043 2.53917981 17.96135906 1.93359375 15.30078125 C1.66675781 14.10839844 1.39992188 12.91601562 1.125 11.6875 C0.90070312 10.70136719 0.67640625 9.71523437 0.4453125 8.69921875 C-0.03996272 5.75776982 -0.07912506 2.9759816 0 0 Z " fill="#4C98C7" transform="translate(18,134)"/>
<path d="M0 0 C1.134375 0.33 2.26875 0.66 3.4375 1 C7.99795849 2.15847067 12.32161006 2.19493291 17 2 C17 2.66 17 3.32 17 4 C12.545 4.495 12.545 4.495 8 5 C8 5.66 8 6.32 8 7 C11.63 7 15.26 7 19 7 C14.4977507 10.00149953 10.277653 9.70597177 5 9 C1.45674024 7.65130564 -1.76280059 5.96619487 -5 4 C-5 3.67 -5 3.34 -5 3 C-3.35 3 -1.7 3 0 3 C0 2.01 0 1.02 0 0 Z " fill="#187FD9" transform="translate(95,100)"/>
<path d="M0 0 C0.89267578 0.00966797 1.78535156 0.01933594 2.70507812 0.02929688 C4.09823242 0.06700195 4.09823242 0.06700195 5.51953125 0.10546875 C6.45990234 0.11900391 7.40027344 0.13253906 8.36914062 0.14648438 C10.69068163 0.18183779 13.01106778 0.23118201 15.33203125 0.29296875 C15.33203125 0.95296875 15.33203125 1.61296875 15.33203125 2.29296875 C21.60203125 2.29296875 27.87203125 2.29296875 34.33203125 2.29296875 C34.33203125 2.62296875 34.33203125 2.95296875 34.33203125 3.29296875 C32.62889771 3.31484253 32.62889771 3.31484253 30.89135742 3.3371582 C26.68107516 3.39510551 22.47132975 3.47233816 18.26147461 3.55541992 C16.43897206 3.58868615 14.61636606 3.61671281 12.79370117 3.6394043 C10.17451875 3.67291956 7.55628577 3.72523227 4.9375 3.78125 C3.71392036 3.79083488 3.71392036 3.79083488 2.46562195 3.8006134 C-1.93452209 3.91513024 -3.65829851 4.23179966 -6.66796875 7.29296875 C-7.65796875 7.29296875 -8.64796875 7.29296875 -9.66796875 7.29296875 C-7.43759624 2.31752238 -5.6727767 -0.10839701 0 0 Z " fill="#3C8ECB" transform="translate(27.66796875,126.70703125)"/>
<path d="M0 0 C2.625 0.3125 2.625 0.3125 4.5625 2 C5.625 4.3125 5.625 4.3125 5.1875 7 C3.625 9.3125 3.625 9.3125 0.5 10.125 C-0.923125 10.2178125 -0.923125 10.2178125 -2.375 10.3125 C-4 8.625 -4 8.625 -5.375 6.3125 C-3.75111182 0.49356734 -3.75111182 0.49356734 0 0 Z " fill="#1F7CD5" transform="translate(105.375,170.6875)"/>
<path d="M0 0 C0.33 0.66 0.66 1.32 1 2 C-0.32 4.64 -1.64 7.28 -3 10 C11.52 10 26.04 10 41 10 C41 8.35 41 6.7 41 5 C42.5 6.3125 42.5 6.3125 44 8 C44 8.99 44 9.98 44 11 C27.83 11 11.66 11 -5 11 C-4.02745 6.13724999 -2.82739031 3.92186398 0 0 Z " fill="#148DF1" transform="translate(48,118)"/>
<path d="M0 0 C0.33 0 0.66 0 1 0 C1.125 7.625 1.125 7.625 0 11 C0.66 11 1.32 11 2 11 C2.12375 10.071875 2.2475 9.14375 2.375 8.1875 C3 5 3 5 5 2 C4.4943565 7.53359156 3.04383132 11.56030575 0.4375 16.4375 C0.10814453 17.07365234 -0.22121094 17.70980469 -0.56054688 18.36523438 C-1.36453248 19.91494576 -2.18097666 21.45818322 -3 23 C-4 20 -4 20 -3.0625 17.8125 C-2.5365625 16.9153125 -2.5365625 16.9153125 -2 16 C-2.66 16 -3.32 16 -4 16 C-4 16.66 -4 17.32 -4 18 C-4.66 18 -5.32 18 -6 18 C-4.67616701 13.92666772 -3.23079197 9.9219399 -1.68359375 5.9296875 C-0.99028281 3.97256976 -0.47154484 2.02090645 0 0 Z " fill="#1F7FD5" transform="translate(133,72)"/>
<path d="M0 0 C3.08315385 -0.08733513 6.16598827 -0.14050127 9.25 -0.1875 C10.12269531 -0.21263672 10.99539062 -0.23777344 11.89453125 -0.26367188 C18.30294175 -0.33705062 18.30294175 -0.33705062 21.609375 1.26171875 C23 3 23 3 23 7 C22.34 7 21.68 7 21 7 C20.56002686 6.5155542 20.12005371 6.0311084 19.66674805 5.53198242 C17.49713256 3.53779212 16.24532797 3.5810614 13.33203125 3.48828125 C12.43935547 3.45283203 11.54667969 3.41738281 10.62695312 3.38085938 C9.69818359 3.35830078 8.76941406 3.33574219 7.8125 3.3125 C6.87212891 3.27833984 5.93175781 3.24417969 4.96289062 3.20898438 C2.64204607 3.12651782 0.32157852 3.05736597 -2 3 C-1.34 2.67 -0.68 2.34 0 2 C0 1.34 0 0.68 0 0 Z " fill="#3E93D7" transform="translate(169,127)"/>
<path d="M0 0 C6.39075249 -0.36174071 6.39075249 -0.36174071 9 1.1875 C10 3 10 3 9 8 C-2.22 8 -13.44 8 -25 8 C-25 7.67 -25 7.34 -25 7 C-14.44 6.67 -3.88 6.34 7 6 C7.33 5.01 7.66 4.02 8 3 C6.865625 2.87625 5.73125 2.7525 4.5625 2.625 C3.386875 2.41875 2.21125 2.2125 1 2 C0.67 1.34 0.34 0.68 0 0 Z " fill="#1A86E8" transform="translate(170,224)"/>
<path d="M0 0 C0.33 1.65 0.66 3.3 1 5 C3.44480079 4.81171228 3.44480079 4.81171228 6 4 C6.66 2.68 7.32 1.36 8 0 C11.63 0 15.26 0 19 0 C15.09632859 3.90367141 9.45608846 6.21587465 3.9375 6.5 C-0.71534456 5.9091626 -4.01133886 4.37622366 -8 2 C-8 1.67 -8 1.34 -8 1 C-5.23735711 0.40267181 -2.83967231 0 0 0 Z " fill="#1381DF" transform="translate(102,56)"/>
<path d="M0 0 C8.51824802 0.32762492 17.14298839 3.78538728 23.25 9.875 C23.8275 10.57625 24.405 11.2775 25 12 C22.18180107 11.56643093 20.73641805 10.81172718 18.375 9.125 C14.11728904 6.44421903 9.83637007 5.26166176 5 4 C5 3.34 5 2.68 5 2 C3.35 1.67 1.7 1.34 0 1 C0 0.67 0 0.34 0 0 Z " fill="#207BCE" transform="translate(135,103)"/>
<path d="M0 0 C0.33 0 0.66 0 1 0 C1.33 9.9 1.66 19.8 2 30 C2.66 30 3.32 30 4 30 C3.505 32.475 3.505 32.475 3 35 C1 34 1 34 -0.11328125 31.37890625 C-2.71865593 21.45093665 -0.95530324 10.11597891 0 0 Z " fill="#297ECC" transform="translate(58,40)"/>
<path d="M0 0 C0.33 0 0.66 0 1 0 C1.2546343 3.76956869 1.47432236 7.5403777 1.6875 11.3125 C1.76033203 12.38435547 1.83316406 13.45621094 1.90820312 14.56054688 C1.96298828 15.58857422 2.01777344 16.61660156 2.07421875 17.67578125 C2.13182373 18.62364502 2.18942871 19.57150879 2.2487793 20.5480957 C2 23 2 23 0.49536133 24.83276367 C0.00189209 25.21795166 -0.49157715 25.60313965 -1 26 C-1.0291544 22.60418484 -1.04685068 19.20840214 -1.0625 15.8125 C-1.07087891 14.85279297 -1.07925781 13.89308594 -1.08789062 12.90429688 C-1.09111328 11.97294922 -1.09433594 11.04160156 -1.09765625 10.08203125 C-1.10289307 9.22843018 -1.10812988 8.3748291 -1.11352539 7.49536133 C-0.99579323 4.90753253 -0.57107044 2.52338047 0 0 Z " fill="#0482F8" transform="translate(60,41)"/>
<path d="M0 0 C0.66 0.33 1.32 0.66 2 1 C1.01 1.33 0.02 1.66 -1 2 C-1 2.66 -1 3.32 -1 4 C0.32 4 1.64 4 3 4 C3 4.66 3 5.32 3 6 C4.32 6 5.64 6 7 6 C7 6.66 7 7.32 7 8 C8.32 8 9.64 8 11 8 C11.33 9.32 11.66 10.64 12 12 C9.0280615 10.87548273 6.66559313 9.77706209 4 8 C1.64046906 10.35953094 1.50858587 11.77895617 1 15 C0.34 14.34 -0.32 13.68 -1 13 C-0.625 11.0625 -0.625 11.0625 0 9 C0 8.01 0 7.02 0 6 C-0.66 5.67 -1.32 5.34 -2 5 C-2 3.68 -2 2.36 -2 1 C-1.34 0.67 -0.68 0.34 0 0 Z " fill="#217ED0" transform="translate(58,21)"/>
<path d="M0 0 C1.2375 0.2475 1.2375 0.2475 2.5 0.5 C8.50470492 1.35781499 14.03731689 1.19253662 20 0 C19.67 1.65 19.34 3.3 19 5 C18.34 4.34 17.68 3.68 17 3 C13.64255888 2.75622117 13.64255888 2.75622117 9.875 2.875 C8.59367187 2.89304687 7.31234375 2.91109375 5.9921875 2.9296875 C5.00476563 2.95289062 4.01734375 2.97609375 3 3 C3.66 4.98 4.32 6.96 5 9 C2.5 6.75 2.5 6.75 0 4 C0 2.68 0 1.36 0 0 Z " fill="#2580CA" transform="translate(95,112)"/>
<path d="M0 0 C0.66 0.33 1.32 0.66 2 1 C0.47793991 3.62901288 -0.84365964 5.84365964 -3 8 C-5.06298828 8.13525391 -5.06298828 8.13525391 -7.5703125 7.9765625 C-8.46621094 7.925 -9.36210937 7.8734375 -10.28515625 7.8203125 C-11.22230469 7.75585938 -12.15945312 7.69140625 -13.125 7.625 C-14.06988281 7.56828125 -15.01476562 7.5115625 -15.98828125 7.453125 C-18.32626481 7.31142903 -20.66320944 7.16000217 -23 7 C-23 6.67 -23 6.34 -23 6 C-21.81921875 5.96261719 -20.6384375 5.92523438 -19.421875 5.88671875 C-17.86455212 5.82104851 -16.30726186 5.75460153 -14.75 5.6875 C-13.97269531 5.66494141 -13.19539062 5.64238281 -12.39453125 5.61914062 C-7.96639215 5.41098024 -5.38027076 5.12089355 -2 2 C-1.34 2 -0.68 2 0 2 C0 1.34 0 0.68 0 0 Z " fill="#4387C0" transform="translate(175,215)"/>
<path d="M0 0 C1.65 0.33 3.3 0.66 5 1 C4.625 2.9375 4.625 2.9375 4 5 C1.35541621 6.32229189 -0.67761301 6.09677194 -3.625 6.0625 C-4.62789063 6.05347656 -5.63078125 6.04445313 -6.6640625 6.03515625 C-7.43492188 6.02355469 -8.20578125 6.01195313 -9 6 C-9 5.34 -9 4.68 -9 4 C-4.545 3.505 -4.545 3.505 0 3 C0 2.01 0 1.02 0 0 Z " fill="#0487F6" transform="translate(112,101)"/>
<path d="M0 0 C0.33 0 0.66 0 1 0 C1.09796875 0.68707031 1.1959375 1.37414062 1.296875 2.08203125 C1.52117188 3.43361328 1.52117188 3.43361328 1.75 4.8125 C1.88921875 5.70582031 2.0284375 6.59914062 2.171875 7.51953125 C3.17510425 10.52448678 4.43280594 11.26244792 7 13 C7 13.66 7 14.32 7 15 C3.74322102 14.73593684 2.38010847 14.43253722 0.1875 11.9375 C-1.39815296 8.01509531 -1.28108858 5.21632866 -1 1 C-0.67 0.67 -0.34 0.34 0 0 Z " fill="#2B72C7" transform="translate(35,207)"/>
<path d="M0 0 C0.73089844 0.42925781 0.73089844 0.42925781 1.4765625 0.8671875 C-1.40027379 1.69643078 -3.23451802 1.84387338 -6.3359375 1.7421875 C-9.42364613 1.67893835 -11.48562339 2.10472639 -14.2734375 3.4296875 C-17.68763415 4.93981294 -18.20947764 4.95503085 -21.5234375 3.8671875 C-7.35362143 -3.44951696 -7.35362143 -3.44951696 0 0 Z " fill="#237FD3" transform="translate(113.5234375,3.1328125)"/>
<path d="M0 0 C0.3125 2.3125 0.3125 2.3125 0 5 C-2.5 6.8125 -2.5 6.8125 -5 8 C-5.33 6.68 -5.66 5.36 -6 4 C-7.65 3.67 -9.3 3.34 -11 3 C-11 2.34 -11 1.68 -11 1 C-9.35422741 0.83273455 -7.70838013 0.66620388 -6.0625 0.5 C-4.68771484 0.36078125 -4.68771484 0.36078125 -3.28515625 0.21875 C-1 0 -1 0 0 0 Z " fill="#097CEB" transform="translate(113,114)"/>
<path d="M0 0 C0.33 0 0.66 0 1 0 C1 1.98 1 3.96 1 6 C0.34 6 -0.32 6 -1 6 C-1.66 8.97 -2.32 11.94 -3 15 C-3.66 15 -4.32 15 -5 15 C-4.67 11.37 -4.34 7.74 -4 4 C-3.01 3.67 -2.02 3.34 -1 3 C-0.67 2.01 -0.34 1.02 0 0 Z " fill="#0D7FE8" transform="translate(138,68)"/>
<path d="M0 0 C6.45353615 2.05764921 12.7361263 4.42383482 19 7 C15.90521121 8.03159626 14.47368607 7.97482862 11.3125 7.5625 C10.50425781 7.46066406 9.69601563 7.35882812 8.86328125 7.25390625 C8.24839844 7.17011719 7.63351563 7.08632813 7 7 C6.67 5.68 6.34 4.36 6 3 C3.03 2.505 3.03 2.505 0 2 C0 1.34 0 0.68 0 0 Z " fill="#197CD1" transform="translate(134,13)"/>
<path d="M0 0 C0.33 0 0.66 0 1 0 C1.38614349 6.8218683 0.00865708 12.49577707 -2 19 C-2.66 19 -3.32 19 -4 19 C-2.89309248 12.59406714 -1.66054831 6.28636144 0 0 Z " fill="#5C90B7" transform="translate(192,132)"/>
<path d="M0 0 C0.33 0.66 0.66 1.32 1 2 C-0.11463924 4.78939871 -1.58628534 7.34393004 -3 10 C2.61 10 8.22 10 14 10 C14 10.33 14 10.66 14 11 C7.73 11 1.46 11 -5 11 C-4.02745 6.13724999 -2.82739031 3.92186398 0 0 Z " fill="#1F88E0" transform="translate(48,118)"/>
<path d="M0 0 C4.19813062 3.74427866 6.07776117 6.8403063 8 12 C7.01 12.495 7.01 12.495 6 13 C1.76143083 8.95409306 0.65850654 5.81680776 0 0 Z " fill="#117DE4" transform="translate(160,115)"/>
<path d="M0 0 C2 1 2 1 2.8515625 3.36328125 C3.10679688 4.33652344 3.36203125 5.30976562 3.625 6.3125 C3.88539062 7.27800781 4.14578125 8.24351563 4.4140625 9.23828125 C5 12 5 12 5 16 C4.34 15.67 3.68 15.34 3 15 C2.59270772 12.67843403 2.25561323 10.3431213 2 8 C1.34 8 0.68 8 0 8 C0 5.36 0 2.72 0 0 Z " fill="#0681F1" transform="translate(75,72)"/>
<path d="M0 0 C0.99 0 1.98 0 3 0 C3.33 0.99 3.66 1.98 4 3 C3.67 3.66 3.34 4.32 3 5 C2.34 5 1.68 5 1 5 C0.67 8.63 0.34 12.26 0 16 C-0.33 16 -0.66 16 -1 16 C-1.02685095 13.52076199 -1.04676547 11.0418116 -1.0625 8.5625 C-1.07506836 7.50192383 -1.07506836 7.50192383 -1.08789062 6.41992188 C-1.09653588 4.61306441 -1.05220011 2.80612397 -1 1 C-0.67 0.67 -0.34 0.34 0 0 Z " fill="#0E7CE2" transform="translate(60,30)"/>
<path d="M0 0 C6.45353615 2.05764921 12.7361263 4.42383482 19 7 C15.02623171 8.56393356 12.18622097 7.36145292 8.25 6.0625 C7.07953125 5.68222656 5.9090625 5.30195313 4.703125 4.91015625 C3.36507812 4.45962891 3.36507812 4.45962891 2 4 C2 3.34 2 2.68 2 2 C1.34 2 0.68 2 0 2 C0 1.34 0 0.68 0 0 Z " fill="#1B7AD3" transform="translate(115,5)"/>
<path d="M0 0 C0.99 0.33 1.98 0.66 3 1 C2.01 5.62 1.02 10.24 0 15 C-0.66 14.67 -1.32 14.34 -2 14 C-1.85795259 12.41632253 -1.71119847 10.83306682 -1.5625 9.25 C-1.48128906 8.36828125 -1.40007812 7.4865625 -1.31640625 6.578125 C-1.03761535 4.30649548 -0.61209423 2.20148177 0 0 Z " fill="#4D9CD1" transform="translate(182,176)"/>
<path d="M0 0 C2.24940295 -0.08119503 4.49964871 -0.13927819 6.75 -0.1875 C8.00296875 -0.22230469 9.2559375 -0.25710937 10.546875 -0.29296875 C14.15395186 0.01306153 15.60711626 0.31102711 18 3 C18 4.32 18 5.64 18 7 C17.34 7 16.68 7 16 7 C15.360625 6.195625 14.72125 5.39125 14.0625 4.5625 C9.6894238 0.90339542 5.54778726 1.10687506 0 1 C0 0.67 0 0.34 0 0 Z " fill="#4084C4" transform="translate(174,127)"/>
<path d="M0 0 C0.33 0.99 0.66 1.98 1 3 C2.65 2.67 4.3 2.34 6 2 C5.67 5.96 5.34 9.92 5 14 C4.67 14 4.34 14 4 14 C4 11.36 4 8.72 4 6 C2.02 6.99 2.02 6.99 0 8 C0 5.36 0 2.72 0 0 Z " fill="#2086DA" transform="translate(130,58)"/>
<path d="M0 0 C0.33 1.32 0.66 2.64 1 4 C0.34 4 -0.32 4 -1 4 C-1.1546875 5.6396875 -1.1546875 5.6396875 -1.3125 7.3125 C-2 11 -2 11 -3.4375 12.9375 C-5 14 -5 14 -7 14 C-6.34097701 10.42959697 -4.83770842 7.82267745 -2.9375 4.75 C-2.38964844 3.85796875 -1.84179688 2.9659375 -1.27734375 2.046875 C-0.64505859 1.03367187 -0.64505859 1.03367187 0 0 Z " fill="#197FD8" transform="translate(128,111)"/>
<path d="M0 0 C2.31 0 4.62 0 7 0 C8.12377697 3.30435084 7.89554742 5.0506862 6.5625 8.25 C6.27503906 8.95640625 5.98757812 9.6628125 5.69140625 10.390625 C5.46324219 10.92171875 5.23507813 11.4528125 5 12 C4 10 4 10 4.1875 6.5625 C4.40265297 2.9502444 4.40265297 2.9502444 2 1.0625 C1.34 0.711875 0.68 0.36125 0 0 Z " fill="#197CD8" transform="translate(70,33)"/>
<path d="M0 0 C0.66 0.33 1.32 0.66 2 1 C1.67 3.97 1.34 6.94 1 10 C0.01 10.33 -0.98 10.66 -2 11 C-2.95465783 8.83032311 -3.14401212 7.43671207 -2.3984375 5.17578125 C-1.64129615 3.4315257 -0.82390802 1.71372869 0 0 Z " fill="#107EDF" transform="translate(62,60)"/>
<path d="M0 0 C-1.625 2.5 -1.625 2.5 -4 5 C-7.125 5.4375 -7.125 5.4375 -10 5 C-10.66 4.34 -11.32 3.68 -12 3 C-10.3789897 2.30314502 -8.75303934 1.61777139 -7.125 0.9375 C-6.22007813 0.55464844 -5.31515625 0.17179687 -4.3828125 -0.22265625 C-2 -1 -2 -1 0 0 Z " fill="#1A7EDD" transform="translate(72,17)"/>
<path d="M0 0 C-0.33 0.99 -0.66 1.98 -1 3 C-3.28726143 4.07705454 -5.43316324 4.94174289 -7.8125 5.75 C-8.44220703 5.98332031 -9.07191406 6.21664063 -9.72070312 6.45703125 C-13.2736214 7.70223031 -15.42926214 8.11070102 -19 7 C-16.2100561 5.82905995 -13.41821403 4.66309073 -10.625 3.5 C-9.43390625 2.99919922 -9.43390625 2.99919922 -8.21875 2.48828125 C-7.45820312 2.17246094 -6.69765625 1.85664063 -5.9140625 1.53125 C-5.2123291 1.23798828 -4.5105957 0.94472656 -3.78759766 0.64257812 C-2 0 -2 0 0 0 Z " fill="#267DD3" transform="translate(91,8)"/>
<path d="M0 0 C0.33 1.65 0.66 3.3 1 5 C3.31 5 5.62 5 8 5 C8 5.33 8 5.66 8 6 C1.49686791 6.46450943 -2.4174808 5.32575612 -8 2 C-8 1.67 -8 1.34 -8 1 C-5.23735711 0.40267181 -2.83967231 0 0 0 Z " fill="#217ED7" transform="translate(102,56)"/>
<path d="M0 0 C1.79275866 3.11910856 2.34290718 5.67682428 2.625 9.25 C2.69976563 10.14203125 2.77453125 11.0340625 2.8515625 11.953125 C2.92503906 12.96632812 2.92503906 12.96632812 3 14 C2.34 14 1.68 14 1 14 C0.63794536 12.04310963 0.28558579 10.08442332 -0.0625 8.125 C-0.25972656 7.03445312 -0.45695312 5.94390625 -0.66015625 4.8203125 C-1 2 -1 2 0 0 Z " fill="#4D86BB" transform="translate(26,167)"/>
<path d="M0 0 C0.66 0 1.32 0 2 0 C1.48594831 4.96916636 0.76615118 9.29026351 -1 14 C-1.33 14 -1.66 14 -2 14 C-2.21192221 8.80790596 -1.5912689 4.873261 0 0 Z " fill="#499ACE" transform="translate(188,151)"/>
<path d="M0 0 C6.39075249 -0.36174071 6.39075249 -0.36174071 9 1.1875 C10 3 10 3 9.6875 5.6875 C9.460625 6.450625 9.23375 7.21375 9 8 C8.34 8 7.68 8 7 8 C7.33 6.35 7.66 4.7 8 3 C6.865625 2.87625 5.73125 2.7525 4.5625 2.625 C3.386875 2.41875 2.21125 2.2125 1 2 C0.67 1.34 0.34 0.68 0 0 Z " fill="#2180D2" transform="translate(170,224)"/>
<path d="M0 0 C1.65 0.33 3.3 0.66 5 1 C4.01 1.495 4.01 1.495 3 2 C2.34 1.67 1.68 1.34 1 1 C1.33 6.28 1.66 11.56 2 17 C1.34 17.33 0.68 17.66 0 18 C-0.66 17.34 -1.32 16.68 -2 16 C-1.34 16 -0.68 16 0 16 C0 10.72 0 5.44 0 0 Z " fill="#2E7AC2" transform="translate(80,51)"/>
<path d="M0 0 C2.64 0.33 5.28 0.66 8 1 C8 1.66 8 2.32 8 3 C8.99 3.33 9.98 3.66 11 4 C7.25 5.125 7.25 5.125 5 4 C5 3.34 5 2.68 5 2 C3.35 1.67 1.7 1.34 0 1 C0 0.67 0 0.34 0 0 Z " fill="#177DDC" transform="translate(135,103)"/>
<path d="M0 0 C0.66 0.33 1.32 0.66 2 1 C0.8125 3.4375 0.8125 3.4375 -1 6 C-3.6875 6.8125 -3.6875 6.8125 -6 7 C-6 6.34 -6 5.68 -6 5 C-2.53846154 2 -2.53846154 2 0 2 C0 1.34 0 0.68 0 0 Z " fill="#267FCC" transform="translate(175,215)"/>
<path d="M0 0 C1.25 7.625 1.25 7.625 -1 11 C-1.66 7.7 -2.32 4.4 -3 1 C-1 0 -1 0 0 0 Z " fill="#467DD1" transform="translate(30,180)"/>
<path d="M0 0 C1.32 0.33 2.64 0.66 4 1 C4 2.32 4 3.64 4 5 C2.02 4.34 0.04 3.68 -2 3 C-1.34 2.01 -0.68 1.02 0 0 Z " fill="#0782F0" transform="translate(104,172)"/>
<path d="M0 0 C1.1055189 0.93590504 2.20935453 1.87379858 3.3125 2.8125 C3.92738281 3.33457031 4.54226562 3.85664062 5.17578125 4.39453125 C6.85424679 5.87172469 8.43882034 7.40039131 10 9 C7.1875 8.8125 7.1875 8.8125 4 8 C1.99466598 5.37232094 1.044037 3.13211099 0 0 Z " fill="#1E85D2" transform="translate(85,91)"/>
<path d="M0 0 C0.66 0.33 1.32 0.66 2 1 C1.67 1.66 1.34 2.32 1 3 C0.34 3 -0.32 3 -1 3 C-1 3.99 -1 4.98 -1 6 C-2.32 6 -3.64 6 -5 6 C-3.63016497 2.83884224 -3.0109362 2.0072908 0 0 Z " fill="#0782F4" transform="translate(126,94)"/>
<path d="M0 0 C0 0.99 0 1.98 0 3 C0.66 3 1.32 3 2 3 C2 3.66 2 4.32 2 5 C-0.97 4.01 -3.94 3.02 -7 2 C-7 1.67 -7 1.34 -7 1 C-2.25 0 -2.25 0 0 0 Z " fill="#167CD8" transform="translate(92,52)"/>
<path d="M0 0 C0.99 0.33 1.98 0.66 3 1 C2.67 2.98 2.34 4.96 2 7 C1.01 7.33 0.02 7.66 -1 8 C-0.67 5.36 -0.34 2.72 0 0 Z " fill="#4C8DBB" transform="translate(179,190)"/>
<path d="M0 0 C1.5 1.3125 1.5 1.3125 3 3 C3 3.99 3 4.98 3 6 C0.36 6 -2.28 6 -5 6 C-5 5.67 -5 5.34 -5 5 C-3.35 5 -1.7 5 0 5 C0 3.35 0 1.7 0 0 Z " fill="#1A85E2" transform="translate(89,123)"/>
<path d="M0 0 C0.99 0.33 1.98 0.66 3 1 C3.73046875 2.84765625 3.73046875 2.84765625 4.1875 5.0625 C4.34605469 5.79597656 4.50460938 6.52945313 4.66796875 7.28515625 C4.83232422 8.13400391 4.83232422 8.13400391 5 9 C2.5 6.75 2.5 6.75 0 4 C0 2.68 0 1.36 0 0 Z " fill="#2D7CC3" transform="translate(95,112)"/>
<path d="M0 0 C2.64 0.99 5.28 1.98 8 3 C4.41220825 3.89694794 1.65381163 4.08304117 -2 4 C-2 3.34 -2 2.68 -2 2 C-1.34 2 -0.68 2 0 2 C0 1.34 0 0.68 0 0 Z " fill="#1A73DC" transform="translate(107,1)"/>
</svg>
